<?xml version="1.0" encoding="UTF-8" standalone="no"?>
<!-- Created with Inkscape (http://www.inkscape.org/) -->

<svg
   width="1024"
   height="1024"
   viewBox="0 0 270.93333 270.93333"
   version="1.1"
   id="svg1"
   xml:space="preserve"
   inkscape:version="1.4.2 (ebf0e940d0, 2025-05-08)"
   sodipodi:docname="logo.svg"
   xmlns:inkscape="http://www.inkscape.org/namespaces/inkscape"
   xmlns:sodipodi="http://sodipodi.sourceforge.net/DTD/sodipodi-0.dtd"
   xmlns="http://www.w3.org/2000/svg"
   xmlns:svg="http://www.w3.org/2000/svg"><sodipodi:namedview
     id="namedview1"
     pagecolor="#505050"
     bordercolor="#ffffff"
     borderopacity="1"
     inkscape:showpageshadow="0"
     inkscape:pageopacity="0"
     inkscape:pagecheckerboard="1"
     inkscape:deskcolor="#505050"
     inkscape:document-units="mm"
     inkscape:zoom="0.73575611"
     inkscape:cx="254.83988"
     inkscape:cy="646.95351"
     inkscape:window-width="2560"
     inkscape:window-height="1371"
     inkscape:window-x="0"
     inkscape:window-y="32"
     inkscape:window-maximized="1"
     inkscape:current-layer="layer1" /><defs
     id="defs1" /><g
     inkscape:label="Ebene 1"
     inkscape:groupmode="layer"
     id="layer1"><g
       id="g8"
       transform="matrix(1.5323129,0,0,1.5439556,-100.9139,-36.356552)"><path
         d="m 150.44981,108.21434 c -5.14322,0 -8.93718,1.62221 -12.69793,5.42964 -4.65851,4.71633 -6.40588,10.7994 -4.91701,17.11575 2.32037,9.84389 12.36552,15.95535 22.3547,13.60073 8.51957,-2.00821 14.27656,-9.9455 13.67979,-18.85984 -0.35142,-5.24946 -2.12553,-8.98532 -5.94693,-12.52326 -3.59158,-3.32517 -7.35626,-4.76302 -12.47262,-4.76302 z"
         style="fill:#44aa00;stroke:none;stroke-width:2.64107;stroke-dasharray:none;stroke-opacity:1"
         id="path22" /><path
         id="path19"
         style="display:inline;fill:#1a1a1a"
         d="m 88.902663,23.547674 c -1.616985,0 -2.762447,2.371533 -4.575431,9.47229 -2.045697,8.012207 -2.527281,19.544109 -1.14515,27.413314 2.757738,15.701269 11.109385,27.26663 26.050608,36.074284 2.20037,1.297084 4.07829,2.56063 4.17339,2.808097 0.19675,0.51194 0.20822,0.502257 -5.98517,5.388821 -5.47394,4.3189 -12.95362,11.73505 -17.238222,17.09198 -3.998541,4.99928 -4.326145,5.60702 -3.609082,6.7014 1.244943,1.90002 7.455838,8.75022 11.36003,12.52947 7.443044,7.20485 14.698164,12.10786 24.782464,16.74729 9.92795,4.5675 14.4291,6.06552 21.74648,7.2378 6.84819,1.09711 12.52353,1.29828 19.22622,0.68213 10.15121,-0.93316 19.18213,-3.6098 28.50627,-8.44961 9.18747,-4.76888 15.98831,-9.91445 24.06209,-18.20561 6.34464,-6.51546 9.8733,-10.74754 9.8733,-11.84113 0,-1.18637 -5.04684,-7.42828 -10.75438,-13.30049 -9.87109,-10.15589 -20.0997,-17.169831 -31.57895,-21.654487 -3.64126,-1.422549 -5.62759,-2.052448 -12.38943,-3.931543 -2.91306,-0.809529 -2.93895,-0.87295 -2.46393,-5.939689 1.12097,-11.95677 -2.34301,-21.636451 -10.69599,-29.890166 -4.00103,-3.953486 -8.29863,-6.97829 -13.7852,-9.70225 -5.79841,-2.878781 -11.68192,-4.831768 -23.40684,-7.770585 -11.64501,-2.918789 -18.41432,-5.267172 -27.341484,-9.485209 -2.299752,-1.08662 -4.464959,-1.976107 -4.811593,-1.976107 z m 80.030777,71.27937 c 1.08794,0.02623 2.93291,0.374439 5.64823,1.057817 9.2103,2.317998 16.99284,6.427459 26.30641,13.891139 6.36406,5.1 16.77572,15.99232 16.77572,17.54984 0,1.32672 -9.21745,10.72622 -15.34584,15.64917 -10.6644,8.56674 -25.27821,14.71174 -37.44216,15.5391 -1.94449,0.0824 -0.7964,-0.82463 2.13992,-2.61896 5.00704,-3.0597 9.88678,-8.19889 12.57391,-13.0731 0.45604,-0.88881 0.87814,-1.79155 1.25833,-2.71198 2.01338,-5.12592 2.8791,-11.11556 2.26549,-16.02125 -1.16356,-9.30254 -3.63558,-14.47774 -10.64069,-22.27719 -2.7327,-3.04256 -4.981,-6.238393 -4.70411,-6.686413 0.132,-0.213574 0.51202,-0.313911 1.16479,-0.298173 z m -12.7739,6.513296 c 2.30137,0.007 3.47567,0.48806 5.9154,1.69964 2.78914,1.3851 3.97858,2.24523 6.34122,4.58628 5.59743,5.54627 8.11611,11.7254 8.07702,19.81481 -0.0376,7.78762 -2.0125,12.63808 -7.3365,18.02268 -3.46158,3.50099 -5.1782,4.78357 -8.86871,6.62492 -6.02335,3.0053 -13.00918,4.15431 -21.29379,3.50262 -5.6372,-0.44344 -10.33972,-1.90008 -16.93333,-5.24515 -9.26074,-4.69816 -15.73549,-9.80751 -23.870382,-18.8371 -2.868721,-3.18423 -3.596528,-4.19844 -3.419429,-4.7625 0.6462,-2.05813 12.019931,-13.71509 17.140551,-17.5674 3.18597,-2.39685 7.34165,-5.01334 10.47378,-6.59443 l 2.24224,-1.13223 5.91334,0.38241 c 7.69393,0.49748 14.69056,0.48051 19.74246,-0.0481 2.709,-0.28343 4.49531,-0.45041 5.87613,-0.44649 z" /><path
         d="m 92.328811,33.147088 c -0.0609,6.53e-4 -0.105285,0.01278 -0.129708,0.03721 -0.431596,0.431596 -1.502238,6.698882 -1.931665,11.308871 -0.735516,7.895927 0.458172,17.554915 3.005501,24.322546 2.43155,6.460032 8.801821,14.35566 14.952061,18.532202 4.67543,3.175029 11.5411,6.106335 15.7763,6.736023 2.80408,0.416909 28.69596,0.260264 29.71446,-0.179834 0.72388,-0.312792 0.19088,-0.875032 -6.67659,-7.036263 -14.54342,-13.047814 -16.63064,-14.565463 -34.35295,-24.987622 -1.55037,-0.911747 -2.62061,-2.686652 -2.61844,-4.34237 0.003,-2.130349 2.32505,-4.35684 4.54442,-4.35684 0.87373,0 4.14235,1.734137 10.65103,5.650301 9.78444,5.887134 14.86917,9.840097 30.31185,23.563936 2.61937,2.327827 4.87349,4.128205 5.009,4.001306 0.66561,-0.623289 1.35505,-4.782054 1.36684,-8.244975 0.0258,-7.590103 -2.52538,-13.524738 -8.53126,-19.847367 -3.60324,-3.793277 -6.50001,-5.877131 -11.77913,-8.473384 -6.54507,-3.218842 -12.4834,-5.130722 -25.22378,-8.120435 -7.40072,-1.736687 -18.301694,-5.598195 -22.662187,-8.027934 -0.589415,-0.328431 -1.161846,-0.538197 -1.425752,-0.535368 z"
         style="display:inline;fill:#44aa00"
         id="path23" /></g><text
       xml:space="preserve"
       style="font-style:normal;font-variant:normal;font-weight:bold;font-stretch:normal;font-size:50.8px;font-family:'TeX Gyre Heros';-inkscape-font-specification:'TeX Gyre Heros Bold';text-align:start;writing-mode:lr-tb;direction:ltr;text-anchor:start;fill:#1a1a1a;fill-opacity:1;stroke:none;stroke-width:4.99999;stroke-dasharray:none;stroke-opacity:1"
       x="8.2127113"
       y="270.32379"
       id="text23"><tspan
         sodipodi:role="line"
         id="tspan23"
         style="font-style:normal;font-variant:normal;font-weight:bold;font-stretch:normal;font-size:50.8px;font-family:'TeX Gyre Heros';-inkscape-font-specification:'TeX Gyre Heros Bold';fill:#1a1a1a;stroke-width:5"
         x="8.2127113"
         y="270.32379">PLAMOTO</tspan></text></g></svg>
